<?xml version="1.0" encoding="UTF-8"?>
<svg width="28px" height="28px" viewBox="0 0 28 28" version="1.1" xmlns="http://www.w3.org/2000/svg" xmlns:xlink="http://www.w3.org/1999/xlink">
    <!-- Generator: Sketch 52.3 (67297) - http://www.bohemiancoding.com/sketch -->
    <title>icon-github</title>
    <desc>Created with Sketch.</desc>
    <g id="Page-1" stroke="none" stroke-width="1" fill="none" fill-rule="evenodd">
        <g id="icon-github" fill="#345acd">
            <path d="M26.0949795,7.15161772 C24.8443554,4.95887179 23.1479636,3.22287179 21.0053576,1.94322611 C18.8624328,0.663515152 16.5229977,0.0238228438 13.9853941,0.0238228438 C11.4481093,0.0238228438 9.10790888,0.663710956 6.96543052,1.94322611 C4.82263326,3.22280653 3.12630524,4.95887179 1.87568109,7.15161772 C0.625248292,9.34429837 0,11.7387226 0,14.3348252 C0,17.4533333 0.889111617,20.2575758 2.66778132,22.7482704 C4.44625968,25.2391608 6.74379043,26.9627599 9.56018223,27.9192634 C9.88801822,27.9815291 10.1307062,27.9377343 10.2885011,27.7889883 C10.4463599,27.6400466 10.5251936,27.4535105 10.5251936,27.2301632 C10.5251936,27.1928951 10.5220683,26.8576131 10.5160091,26.2239254 C10.5097585,25.5902378 10.5068246,25.0374172 10.5068246,24.5657249 L10.0879727,24.6398695 C9.82092027,24.6899301 9.48402733,24.7111422 9.07729385,24.7051375 C8.67075171,24.6993287 8.24871071,24.6557296 7.81174487,24.5746667 C7.3745877,24.4943217 6.96798178,24.3079814 6.5916082,24.0160373 C6.21542597,23.7240932 5.94837358,23.3419487 5.79051481,22.8701911 L5.60841913,22.44138 C5.48704328,22.1558974 5.29595444,21.8387599 5.03489749,21.4911422 C4.77384055,21.1431981 4.50984966,20.9073193 4.24279727,20.7831142 L4.11529841,20.6897156 C4.03034169,20.6276457 3.95150797,20.5527832 3.87860592,20.4659114 C3.80576765,20.3790396 3.75123462,20.2921026 3.71481549,20.205035 C3.67833257,20.1179021 3.70856492,20.0464336 3.80583144,19.9903683 C3.90309795,19.934303 4.07887927,19.9070862 4.33394077,19.9070862 L4.69800456,19.9627599 C4.94082005,20.0125594 5.24116629,20.1613054 5.59942597,20.4099114 C5.95749431,20.6583217 6.2518451,20.9812681 6.48254214,21.37862 C6.76190433,21.8881026 7.09847836,22.276317 7.49322096,22.5434592 C7.88764465,22.8106014 8.28532118,22.9439441 8.68586788,22.9439441 C9.08641458,22.9439441 9.43236446,22.9128765 9.7238451,22.8510676 C10.0150068,22.7889324 10.2881822,22.6955338 10.5432437,22.5713939 C10.6525011,21.738704 10.9499772,21.0990117 11.4354169,20.6518601 C10.7435171,20.5774545 10.1214579,20.4653893 9.56892027,20.3163823 C9.01670159,20.1671795 8.44605011,19.925035 7.85734852,19.589296 C7.26832802,19.254014 6.77969932,18.837669 6.39133485,18.340979 C6.00290661,17.844028 5.68412756,17.1916084 5.43544419,16.3843077 C5.18663326,15.5766807 5.0621959,14.6450443 5.0621959,13.5891375 C5.0621959,12.0856876 5.54183144,10.806303 6.50091116,9.75026573 C6.05163554,8.61995338 6.09405011,7.35283916 6.62828246,5.94905361 C6.98035535,5.83711888 7.50246925,5.92111888 8.19436902,6.20053147 C8.88639636,6.48007459 9.39307517,6.71954312 9.71491572,6.91808858 C10.0367563,7.11656876 10.2946241,7.28476457 10.4889021,7.42117483 C11.6181503,7.09829371 12.7834989,6.93682051 13.9852665,6.93682051 C15.1870342,6.93682051 16.3526378,7.09829371 17.4819499,7.42117483 L18.1739134,6.97415385 C18.6471071,6.67587879 19.2058952,6.40253613 19.8489385,6.15406061 C20.4923645,5.90571562 20.9843736,5.83731469 21.3244556,5.94924942 C21.8705513,7.35310023 21.9192164,8.62014918 21.4698132,9.75046154 C22.4288292,10.8064988 22.908656,12.0862098 22.908656,13.5893333 C22.908656,14.6452401 22.7837722,15.5798135 22.535344,16.393641 C22.2865968,17.2075991 21.9650752,17.859366 21.5706515,18.3503124 C21.1757813,18.8411935 20.6840273,19.2542751 20.0953257,19.5894918 C19.5064966,19.9249697 18.9356538,20.1671142 18.3834351,20.316317 C17.8309613,20.4655198 17.2089021,20.5776503 16.5170023,20.6521865 C17.1480547,21.2110117 17.4636446,22.0931096 17.4636446,23.2980886 L17.4636446,27.229641 C17.4636446,27.4529883 17.5395444,27.6394592 17.6914715,27.7884662 C17.8432073,27.9372121 18.0828337,27.981007 18.4106697,27.918676 C21.2274442,26.962303 23.5249749,25.2386387 25.3033895,22.7477483 C27.0816128,20.2570536 27.9710433,17.4528112 27.9710433,14.334303 C27.9704055,11.7385268 27.3448383,9.34429837 26.0949795,7.15161772 Z" id="Path"></path>
        </g>
    </g>
</svg>