<?xml version="1.0" encoding="UTF-8"?>
<svg width="28px" height="28px" viewBox="0 0 28 28" version="1.1" xmlns="http://www.w3.org/2000/svg" xmlns:xlink="http://www.w3.org/1999/xlink">
    <!-- Generator: Sketch 52.3 (67297) - http://www.bohemiancoding.com/sketch -->
    <title>icon-email</title>
    <desc>Created with Sketch.</desc>
    <g id="Page-1" stroke="none" stroke-width="1" fill="none" fill-rule="evenodd">
        <g fill-rule="nonzero">
            <path id="icon-email" fill="#345acd" d="M24.0874743,3.52423625 C21.5174538,1.17474542 18.3207392,0 14.5030801,0 C10.4899384,0 7.06899384,1.33441955 4.24599589,4.0089613 C1.42299795,6.68350305 0.00862422998,10.0081466 0.00862422998,13.9885947 C0.00862422998,17.803666 1.35400411,21.0826884 4.03901437,23.8313646 C6.73552361,26.5800407 10.3577002,27.9543788 14.9170431,27.9543788 C17.6652977,27.9543788 20.361807,27.3955193 23.0065708,26.2720978 C23.8689938,25.9071283 24.2887064,24.9262729 23.9379877,24.0651731 C23.57577,23.1755601 22.5523614,22.7649695 21.661191,23.1413442 C19.3613963,24.1221996 17.1075975,24.6126273 14.9112936,24.6126273 C11.4156057,24.6126273 8.70759754,23.5576375 6.78726899,21.4419552 C4.87268994,19.3319756 3.91252567,16.8513238 3.91252567,14.0057026 C3.91252567,10.9148676 4.94168378,8.33727088 6.99425051,6.26720978 C9.04106776,4.20285132 11.5650924,3.16496945 14.5548255,3.16496945 C17.3088296,3.16496945 19.6373717,4.01466395 21.5347023,5.71405295 C23.4320329,7.41344196 24.3806982,9.55193483 24.3806982,12.1295316 C24.3806982,13.8916497 23.9437372,15.3629328 23.0755647,16.5319756 C22.2073922,17.706721 21.3047228,18.288391 20.3675565,18.288391 C19.8616016,18.288391 19.6086242,18.0203666 19.6086242,17.4786151 C19.6086242,17.0395112 19.6431211,16.5262729 19.7063655,15.9331976 L20.77577,7.25947047 L17.0960986,7.25947047 L16.8603696,8.10916497 C15.9232033,7.35071283 14.8940452,6.96863544 13.7786448,6.96863544 C12.0078029,6.96863544 10.4899384,7.6700611 9.23080082,9.06720978 C7.96591376,10.4643585 7.33921971,12.2663951 7.33921971,14.4676171 C7.33921971,16.6175153 7.89691992,18.3568228 9.01806982,19.6741344 C10.1392197,20.9971487 11.4845996,21.6529532 13.0599589,21.6529532 C14.4685832,21.6529532 15.6702259,21.0655804 16.6706366,19.8965377 C17.4238193,21.0199593 18.5334702,21.5788187 19.9995893,21.5788187 C22.1556468,21.5788187 24.0184805,20.6492872 25.5880903,18.7845214 C27.1577002,16.9254582 27.9453799,14.6786151 27.9453799,12.0496945 C27.9453799,8.71934827 26.6632444,5.87372709 24.0874743,3.52423625 Z M15.612731,16.6460285 C14.963039,17.512831 14.1868583,17.9519348 13.2841889,17.9519348 C12.6689938,17.9519348 12.174538,17.6325866 11.8008214,16.99389 C11.4213552,16.3551935 11.2316222,15.5625255 11.2316222,14.6101833 C11.2316222,13.4354379 11.4960986,12.4887984 12.0250513,11.7702648 C12.5540041,11.0517312 13.2094456,10.6867617 13.9913758,10.6867617 C14.6698152,10.6867617 15.2735113,10.9547862 15.8024641,11.4965377 C16.3314168,12.0382892 16.5958932,12.7568228 16.5958932,13.6578411 C16.5901437,14.7812627 16.262423,15.7735234 15.612731,16.6460285 Z"></path>
        </g>
    </g>
</svg>