<?xml version="1.0" encoding="UTF-8"?>
<svg width="28px" height="28px" viewBox="0 0 28 28" version="1.1" xmlns="http://www.w3.org/2000/svg" xmlns:xlink="http://www.w3.org/1999/xlink">
    <!-- Generator: Sketch 52.3 (67297) - http://www.bohemiancoding.com/sketch -->
    <title>icon-linkedin</title>
    <desc>Created with Sketch.</desc>
    <g id="Page-1" stroke="none" stroke-width="1" fill="none" fill-rule="evenodd">
        <g id="icon-linkedin" fill="#345acd" fill-rule="nonzero">
            <path d="M13.9825216,0 C6.26067351,0 0,6.26067351 0,13.9825216 C0,21.7043696 6.26067351,27.9650431 13.9825216,27.9650431 C21.7043696,27.9650431 27.9650431,21.7043696 27.9650431,13.9825216 C27.9650431,6.25894867 21.7043696,0 13.9825216,0 Z M10.4868912,20.7553018 L6.99126078,20.7553018 L6.99126078,8.52056674 L10.4868912,8.52056674 L10.4868912,20.7553018 Z M8.84742505,7.77077618 C7.94205339,7.77077618 7.20974127,7.03668172 7.20974127,6.13131006 C7.20974127,5.2259384 7.94383573,4.49184394 8.84742505,4.49184394 C9.75279671,4.49356879 10.4868912,5.22766324 10.4868912,6.13131006 C10.4868912,7.03668172 9.75279671,7.77077618 8.84742505,7.77077618 Z M22.7215688,20.7553018 L19.2259384,20.7553018 L19.2259384,13.1907598 C19.2259384,12.3045914 18.972501,11.6841643 17.8836057,11.6841643 C16.0780945,11.6841643 15.730308,13.1907598 15.730308,13.1907598 L15.730308,20.7553018 L12.2346776,20.7553018 L12.2346776,8.52056674 L15.730308,8.52056674 L15.730308,9.68983984 C16.2301684,9.30709651 17.4780945,8.52229158 19.2259384,8.52229158 C20.3585298,8.52229158 22.7215688,9.20044353 22.7215688,13.2972977 L22.7215688,20.7553018 Z" id="Shape"></path>
        </g>
    </g>
</svg>