<?xml version="1.0" encoding="UTF-8"?>
<svg width="28px" height="28px" viewBox="0 0 28 28" version="1.1" xmlns="http://www.w3.org/2000/svg" xmlns:xlink="http://www.w3.org/1999/xlink">
    <!-- Generator: Sketch 52.3 (67297) - http://www.bohemiancoding.com/sketch -->
    <title>icon-medium</title>
    <desc>Created with Sketch.</desc>
    <g id="Page-1" stroke="none" stroke-width="1" fill="none" fill-rule="evenodd">
        <g fill-rule="nonzero" id="icon-medium" >
            <path fill="var(--text-color)" d="M14,0 C21.7319865,-3.19669972e-15 28,6.2680135 28,14 C28,21.7319865 21.7319865,28 14,28 C6.2680135,28 -2.60581843e-15,21.7319865 -3.55271368e-15,14 C-4.49960893e-15,6.2680135 6.2680135,-3.56013962e-16 14,-1.77635684e-15 Z M6.68181666,9.3643136 L6.68181666,17.6781682 C6.73297819,17.9780799 6.63843558,18.2844417 6.42714932,18.5034083 L4.45128205,20.9001161 L4.45128205,21.2161655 L10.0539635,21.2161655 L10.0539635,20.9001161 L8.07809619,18.5034083 C7.86526029,18.2848041 7.76486348,17.9804612 7.80586559,17.6781682 L7.80586559,10.4880447 L12.7235797,21.2161655 L13.2943858,21.2161655 L17.5183509,10.4880447 L17.5183509,19.0389364 C17.5183509,19.2671943 17.5183509,19.31109 17.3690632,19.4603356 L15.8498408,20.9352327 L15.8498408,21.2512821 L23.226412,21.2512821 L23.226412,20.9352327 L21.7598794,19.4954522 C21.6304199,19.3967705 21.5662014,19.2345805 21.5930284,19.074053 L21.5930284,8.4951778 C21.5662014,8.33465033 21.6304199,8.17246018 21.7598794,8.07377862 L23.2615385,6.6339981 L23.2615385,6.31794872 L18.0628122,6.31794872 L14.3569633,15.5623931 L10.1417798,6.31794872 L4.68838612,6.31794872 L4.68838612,6.6339981 L6.44471259,8.74977313 C6.61713231,8.90518189 6.70518697,9.13340719 6.68181666,9.3643136 Z"></path>
        </g>
    </g>
</svg>